# xmcd
#
# Track frame offsets: 
#        150
#        26327
#        49963
#        75791
#        102669
#        126526
#        161619
#        188431
#        212424
#        243185
#        272784
#
# Disc length: 3976 seconds
#
# Revision: 1
# Processed by: cddbd v1.5.2PL0 Copyright (c) Steve Scherf et al.
# Submitted via: ExactAudioCopy v0.99pb5
#
DISCID=8a0f860b
DTITLE=Calle Real - Me Lo Gané
DYEAR=2009
DGENRE=Salsa
TTITLE0=Somos Familia
TTITLE1=El amigo José
TTITLE2=Me Lo gané
TTITLE3=Jugando Super Mario Bros
TTITLE4=El Anillo
TTITLE5=Los Dos Sabemos
TTITLE6=La Eternidad Del Amor
TTITLE7=Mi Melodia
TTITLE8=El Dony
TTITLE9=Ábreme La Puerta
TTITLE10=Loco
EXTD=YEAR: 2009
EXTT0=
EXTT1=
EXTT2=
EXTT3=
EXTT4=
EXTT5=
EXTT6=
EXTT7=
EXTT8=
EXTT9=
EXTT10=
PLAYORDER=
